<svg xmlns="http://www.w3.org/2000/svg" viewBox="0 0 1024 1024" fill="currentColor" data-adqt-slot="primary">
  <g transform="translate(-61.44 -61.44) scale(1.12)">
    <path d="M136 128H184a8 8 0 0 1 8 8V888a8 8 0 0 1 -8 8H136a8 8 0 0 1 -8 -8V136a8 8 0 0 1 8 -8Z"/>
    <path d="M328 256H888a8 8 0 0 1 8 8V472a8 8 0 0 1 -8 8H328a8 8 0 0 1 -8 -8V264a8 8 0 0 1 8 -8ZM384 320V416H832V320Z"/>
    <path d="M328 608H696a8 8 0 0 1 8 8V824a8 8 0 0 1 -8 8H328a8 8 0 0 1 -8 -8V616a8 8 0 0 1 8 -8ZM384 672V768H640V672Z"/>
  </g>
</svg>
