<svg xmlns="http://www.w3.org/2000/svg" viewBox="0 0 1024 1024" fill="currentColor" data-adqt-slot="primary">
  <g transform="translate(-61.44 -61.44) scale(1.12)">
    <path d="M784 280h96a32 32 0 0 1 32 32v568a32 32 0 0 1-32 32H312a32 32 0 0 1-32-32v-96h472a32 32 0 0 0 32-32V280Z"/>
    <path d="M688 112H144a32 32 0 0 0-32 32v544a32 32 0 0 0 32 32h544a32 32 0 0 0 32-32V144a32 32 0 0 0-32-32ZM184 184h464v464L421.7 421.7a8 8 0 0 0-11.4 0L184 648V184Zm101.8 464L416 517.8 546.2 648H285.8Z"/>
    <circle cx="548" cy="280" r="44"/>
  </g>
</svg>
